<svg xmlns="http://www.w3.org/2000/svg" viewBox="0 0 231.104 231.104"><path d="M4.453 173.33c9.763-1.192 19.663.092 29.426-1.512 4.903-.78 9.395-2.43 13.84-4.17-11-7.06-20.9-15.126-30.112-24.797-3.3-3.437-.917-9.212 3.896-9.35 3.942.184 7.792-.136 11.55-.916-9.58-12.146-17.005-25.21-22.78-39.876-1.558-3.942 3.025-7.93 6.738-6.738 2.154.87 4.354 1.467 6.6 1.925-6.83-16.41-8.25-32.955-4.446-51.106.87-4.172 6.37-5.18 9.167-2.43 21.91 21.54 49.593 31.9 79.202 36.85-2.613-20.26 11.78-41.8 30.663-48.86 15.676-5.82 36.714-1.833 47.256 11.367 7.06-4.446 16.82-5.913 24.66-7.288 4.124-.69 8.112 3.345 5.683 7.424-2.842 4.767-5.546 9.854-8.525 14.713 6.05-1.788 12.284-2.888 18.517-3.667 4.49-.596 7.195 6.325 3.758 9.075-7.288 5.82-14.53 12.467-22.276 17.784-.23 51.47-15.263 94.648-61.235 123.936-38.32 24.477-109.546 20.352-142.867-12.97h-.046c-1.467-.367-2.246-1.467-2.52-2.658-1.284-1.925-.368-4.308 1.328-5.225.642-.78 1.467-1.376 2.52-1.513z" fill="#3FA9F5"/></svg>